<?xml version="1.0" encoding="UTF-8" standalone="no"?>
<svg
   xmlns:dc="http://purl.org/dc/elements/1.1/"
   xmlns:cc="http://creativecommons.org/ns#"
   xmlns:rdf="http://www.w3.org/1999/02/22-rdf-syntax-ns#"
   xmlns:svg="http://www.w3.org/2000/svg"
   xmlns="http://www.w3.org/2000/svg"

   viewBox="0 0 244.82 139.65"
   version="1.1"
   id="svg40">
  <metadata
     id="metadata44">
    <rdf:RDF>
      <cc:Work
         rdf:about="">
        <dc:format>image/svg+xml</dc:format>
        <dc:type
           rdf:resource="http://purl.org/dc/dcmitype/StillImage" />
        <dc:title></dc:title>
      </cc:Work>
    </rdf:RDF>
  </metadata>
  <defs
     id="defs4">
    <style
       id="style2">.cls-1,.cls-6{font-size:46.75px;font-family:HelveticaNeue-Roman, Helvetica Neue;}.cls-1,.cls-6,.cls-9{fill:#231f20;}.cls-1,.cls-7{letter-spacing:-0.04em;}.cls-2{letter-spacing:-0.06em;}.cls-3{letter-spacing:-0.02em;}.cls-4{letter-spacing:-0.02em;}.cls-5,.cls-6{letter-spacing:-0.04em;}.cls-8{letter-spacing:0em;}</style>
  </defs>
  <g
     id="g961">
    <g
       id="g933">
      <path
         id="path884"
         style="font-size:46.75px;font-family:HelveticaNeue-Roman, 'Helvetica Neue';letter-spacing:-0.04em;fill:#231f20"
         d="m 126.45625,38.781751 c -1.0285,-7.106 -6.77875,-10.846 -13.7445,-10.846 -10.285,0 -15.801498,7.90075 -15.801498,17.578 0,9.724 5.048998,17.391 15.427498,17.391 8.415,0 13.60425,-5.049 14.44575,-13.3705 h -4.44125 c -0.42075,5.5165 -3.78675,9.6305 -9.6305,9.6305 -7.99425,0 -11.36025,-6.358 -11.36025,-13.97825 0,-6.96575 3.366,-13.51075 11.3135,-13.51075 4.62825,0 8.415,2.38425 9.35,7.106 z" />
      <path
         id="path886"
         style="font-size:medium;font-family:HelveticaNeue-Roman, 'Helvetica Neue';letter-spacing:-0.06em;fill:#231f20"
         d="m 149.921,37.940251 h -3.97375 v 13.651 c 0,4.34775 -2.3375,7.5735 -7.15275,7.5735 -3.03875,0 -4.90875,-1.91675 -4.90875,-4.862 v -16.3625 H 129.912 v 15.895 c 0,5.18925 1.9635,8.83575 8.3215,8.83575 3.4595,0 6.171,-1.4025 7.854,-4.3945 h 0.0935 v 3.8335 h 3.74 z" />
      <path
         id="path888"
         style="font-size:medium;font-family:HelveticaNeue-Roman, 'Helvetica Neue';letter-spacing:-0.04em;fill:#231f20"
         d="m 153.47575,62.110001 h 3.97375 v -33.3795 h -3.97375 z" />
      <path
         id="path890"
         style="font-size:medium;font-family:HelveticaNeue-Roman, 'Helvetica Neue';letter-spacing:-0.02em;fill:#231f20"
         d="m 167.40849,30.694001 h -3.97375 v 7.24625 h -4.114 v 3.50625 h 4.114 v 15.38075 c 0,4.44125 1.63625,5.28275 5.75025,5.28275 h 3.03875 v -3.50625 h -1.82325 c -2.47775,0 -2.992,-0.32725 -2.992,-2.1505 v -15.00675 h 4.81525 v -3.50625 h -4.81525 z" />
      <path
         id="path892"
         style="font-size:medium;font-family:HelveticaNeue-Roman, 'Helvetica Neue';letter-spacing:-0.04em;fill:#231f20"
         d="m 195.831,37.940251 h -3.97375 v 13.651 c 0,4.34775 -2.3375,7.5735 -7.15275,7.5735 -3.03875,0 -4.90875,-1.91675 -4.90875,-4.862 v -16.3625 H 175.822 v 15.895 c 0,5.18925 1.9635,8.83575 8.3215,8.83575 3.4595,0 6.171,-1.4025 7.854,-4.3945 h 0.0935 v 3.8335 h 3.74 z" />
      <path
         id="path894"
         style="font-size:medium;font-family:HelveticaNeue-Roman, 'Helvetica Neue';letter-spacing:-0.02em;fill:#231f20"
         d="m 199.94175,62.110001 h 3.97375 v -10.7525 c 0,-6.12425 2.3375,-9.77075 8.74225,-9.77075 v -4.2075 c -4.301,-0.14025 -6.96575,1.7765 -8.8825,5.65675 h -0.0935 v -5.09575 h -3.74 z" />
      <path
         id="path896"
         style="font-size:medium;font-family:HelveticaNeue-Roman, 'Helvetica Neue';letter-spacing:-0.02em;fill:#231f20"
         d="m 229.72077,53.695001 c 0,2.19725 -2.1505,5.46975 -7.3865,5.46975 -2.431,0 -4.675,-0.935 -4.675,-3.553 0,-2.94525 2.244,-3.88025 4.862,-4.34775 2.66475,-0.4675 5.65675,-0.51425 7.1995,-1.63625 z m 6.4515,5.236 c -0.51425,0.187 -0.88825,0.23375 -1.2155,0.23375 -1.26225,0 -1.26225,-0.8415 -1.26225,-2.7115 v -12.4355 c 0,-5.65675 -4.72175,-6.6385 -9.0695,-6.6385 -5.37625,0 -10.0045,2.10375 -10.23825,8.08775 h 3.97375 c 0.187,-3.553 2.66475,-4.5815 6.03075,-4.5815 2.5245,0 5.37625,0.561 5.37625,4.0205 0,2.992 -3.74,2.7115 -8.1345,3.553 -4.114,0.79475 -8.18125,1.9635 -8.18125,7.43325 0,4.81525 3.59975,6.77875 7.99425,6.77875 3.366,0 6.31125,-1.16875 8.5085,-3.74 0,2.618 1.309,3.74 3.366,3.74 1.26225,0 2.1505,-0.23375 2.85175,-0.6545 z" />
      <path
         id="path898"
         style="font-size:medium;font-family:HelveticaNeue-Roman, 'Helvetica Neue';letter-spacing:-0.04em;fill:#231f20"
         d="m 239.40574,62.110001 h 3.97375 v -33.3795 h -3.97375 z" />
    </g>
    <g
       id="g940">
      <path
         id="path909"
         style="font-size:46.75px;font-family:HelveticaNeue-Roman, 'Helvetica Neue';letter-spacing:-0.04em;fill:#231f20"
         d="m 94.572752,105.11 h 4.5815 l 3.739998,-10.051249 h 14.1185 L 120.65925,105.11 H 125.568 L 112.52475,71.730501 H 107.616 Z M 109.9535,75.751001 h 0.0935 l 5.56325,15.56775 h -11.3135 z" />
      <path
         id="path911"
         style="font-size:medium;font-family:HelveticaNeue-Roman, 'Helvetica Neue';letter-spacing:-0.02em;fill:#231f20"
         d="m 131.9685,73.694001 h -3.97375 v 7.24625 h -4.114 v 3.50625 h 4.114 v 15.38075 c 0,4.441249 1.63625,5.282749 5.75025,5.282749 h 3.03875 v -3.50625 h -1.82325 c -2.47775,0 -2.992,-0.32725 -2.992,-2.150499 v -15.00675 h 4.81525 v -3.50625 h -4.81525 z" />
      <path
         id="path913"
         style="font-size:medium;font-family:HelveticaNeue-Roman, 'Helvetica Neue';letter-spacing:-0.04em;fill:#231f20"
         d="m 140.62574,105.11 h 3.97375 V 71.730501 h -3.97375 z" />
      <path
         id="path915"
         style="font-size:medium;font-family:HelveticaNeue-Roman, 'Helvetica Neue';letter-spacing:0em;fill:#231f20"
         d="m 163.99199,96.695001 c 0,2.19725 -2.1505,5.469749 -7.3865,5.469749 -2.431,0 -4.675,-0.935 -4.675,-3.552999 0,-2.94525 2.244,-3.88025 4.862,-4.34775 2.66475,-0.4675 5.65675,-0.51425 7.1995,-1.63625 z m 6.4515,5.235999 c -0.51425,0.187 -0.88825,0.23375 -1.2155,0.23375 -1.26225,0 -1.26225,-0.8415 -1.26225,-2.711499 v -12.4355 c 0,-5.65675 -4.72175,-6.6385 -9.0695,-6.6385 -5.37625,0 -10.0045,2.10375 -10.23825,8.08775 h 3.97375 c 0.187,-3.553 2.66475,-4.5815 6.03075,-4.5815 2.5245,0 5.37625,0.561 5.37625,4.0205 0,2.992 -3.74,2.7115 -8.1345,3.553 -4.114,0.79475 -8.18125,1.9635 -8.18125,7.43325 0,4.815249 3.59975,6.778749 7.99425,6.778749 3.366,0 6.31125,-1.16875 8.5085,-3.74 0,2.618 1.309,3.74 3.366,3.74 1.26225,0 2.1505,-0.23375 2.85175,-0.6545 z" />
      <path
         id="path917"
         style="font-size:medium;font-family:HelveticaNeue-Roman, 'Helvetica Neue';letter-spacing:-0.04em;fill:#231f20"
         d="m 172.73924,97.489751 c 0.23375,5.983999 4.81525,8.181249 10.23825,8.181249 4.90875,0 10.285,-1.87 10.285,-7.620249 0,-4.675 -3.927,-5.984 -7.90075,-6.87225 -3.69325,-0.88825 -7.90075,-1.35575 -7.90075,-4.2075 0,-2.431 2.75825,-3.0855 5.1425,-3.0855 2.618,0 5.3295,0.98175 5.61,4.06725 h 3.97375 c -0.32725,-5.8905 -4.5815,-7.5735 -9.911,-7.5735 -4.2075,0 -9.02275,2.01025 -9.02275,6.87225 0,4.62825 3.97375,5.93725 7.90075,6.8255 3.97375,0.88825 7.90075,1.4025 7.90075,4.488 0,3.038749 -3.366,3.599749 -5.84375,3.599749 -3.2725,0 -6.358,-1.122 -6.49825,-4.674999 z" />
    </g>
    <path
       style="fill:#231f20"
       id="path30"
       d="M 91.86,0 C 91.86,0 68,20.74 49,64.38 c -19,43.64 -17.83,75.27 -17.83,75.27 0,0 23.89,-20.74 42.83,-64.38 C 92.94,31.63 91.86,0 91.86,0"
       class="cls-9" />
    <path
       style="fill:#231f20"
       id="path32"
       d="m 62.42,8.78 c 0,0 -17.69,15.34 -31.74,47.63 -14.05,32.29 -13.19,55.7 -13.19,55.7 0,0 17.7,-15.34 31.74,-47.63 C 63.27,32.19 62.42,8.78 62.42,8.78"
       class="cls-9" />
    <path
       style="fill:#231f20"
       id="path34"
       d="m 40.71,15.26 c 0,0 -13.11,11.37 -23.51,35.29 -10.4,23.92 -9.77,41.26 -9.77,41.26 0,0 13.11,-11.37 23.51,-35.29 10.4,-23.92 9.77,-41.26 9.77,-41.26"
       class="cls-9" />
    <path
       style="fill:#231f20"
       id="path36"
       d="M 24.7,20 C 24.7,20 15,28.48 7.26,46.23 -0.48,63.98 0,76.85 0,76.85 0,76.85 9.72,68.41 17.44,50.66 25.16,32.91 24.7,20 24.7,20"
       class="cls-9" />
  </g>
</svg>
